HIERARCHY
ROOT Hips
{
	OFFSET 0.00000 0.00000 0.00000
	CHANNELS 6 Xposition Yposition Zposition Yrotation Zrotation Xrotation 
	JOINT Lumbar
	{
		OFFSET 0 0 0
		CHANNELS 3 Zrotation Xrotation Yrotation
		JOINT Neck
		{
			OFFSET 0.00 0.2701 0.00
			CHANNELS 3 Zrotation Xrotation Yrotation
			End Site
			{
				OFFSET 0.00 0.1379 0.00
			}
		}
		JOINT RightShoulder
		{
			OFFSET 0.0119 0.2289 0.1181
			CHANNELS 3 Zrotation Xrotation Yrotation
			JOINT RightElbow
			{
				OFFSET 0.00 -0.1475 0.00
				CHANNELS 2 Zrotation Yrotation
				JOINT RightWrist
				{
					OFFSET 0.00 -0.1605 0.00
					CHANNELS 2 Zrotation Xrotation
					End Site
					{
						OFFSET 0.0040 -0.1068 0.0006
					}
				}
			}
		}
		JOINT LeftShoulder
		{
			OFFSET 0.0119 0.2289 -0.1181
			CHANNELS 3 Zrotation Xrotation Yrotation
			JOINT LeftElbow
			{
				OFFSET 0.00 -0.1475 0.00
				CHANNELS 2 Zrotation Yrotation
				JOINT LeftWrist
				{
					OFFSET 0.00 -0.1605 0.00
					CHANNELS 2 Zrotation Xrotation
					End Site
					{
						OFFSET 0.0040 -0.1068 -0.0006
					}
				}
			}
		}
	}
	JOINT RightHip
	{
		OFFSET 0.0316 -0.0424 0.0458
		CHANNELS 3 Zrotation Xrotation Yrotation
		JOINT RightKnee
		{
			OFFSET 0.00 -0.2438 0.00
			CHANNELS 1 Zrotation
			JOINT RightAnkle
			{
				OFFSET 0.00 -0.2449 0.00
				CHANNELS 3 Zrotation Xrotation Yrotation
				End Site
				{
					OFFSET 0.1237 -0.0542 0.0051
				}
			}
		}
	}
	JOINT LeftHip
	{
		OFFSET 0.0316 -0.0424 -0.0458
		CHANNELS 3 Zrotation Xrotation Yrotation
		JOINT LeftKnee
		{
			OFFSET 0.00 -0.2438 0.00
			CHANNELS 1 Zrotation
			JOINT LeftAnkle
			{
				OFFSET 0.00 -0.2449 0.00
				CHANNELS 3 Zrotation Xrotation Yrotation
				End Site
				{
					OFFSET 0.1237 -0.0542 -0.0051
				}
			}
		}
	}
}
MOTION
Frames: 19
Frame Time: 0.02
0.34885 -0.57906 0.0065 -180.99372 30.00632 -0.76049 -8.47163 1.30478 -12.53809 -44.80569 -11.94615 -0.83079 -51.92354 -29.63609 -3.75101 75.70249 93.09953 15.35841 -1.27284 24.26972 56.12108 -28.97288 49.67215 -101.57687 6.29507 -3.73126 109.1245 -11.30094 -11.22004 -81.40643 -14.83403 -3.85098 -3.06308 129.17758 -7.01826 -10.93085 -121.16364 -20.22094 -0.18198 0.79704
0.34872 -0.57903 0.00661 -180.94915 30.18722 -1.00764 -8.35624 1.52734 -12.45359 -44.83503 -11.80986 -0.83079 -51.55494 -29.37928 -4.16547 76.15218 92.18787 13.32633 -1.1364 21.18468 56.24232 -26.03655 49.37194 -100.11871 5.68824 -3.75745 108.84617 -11.15915 -10.52026 -81.28496 -14.87518 -3.73176 -2.9966 128.90961 -4.69457 -9.20407 -120.29148 -19.87761 0.27261 1.27254
0.34856 -0.57895 0.00676 -180.87393 30.37758 -1.30879 -8.26631 1.82363 -12.37138 -44.85347 -11.69697 -0.83079 -50.98451 -29.10676 -4.65614 76.48134 91.16779 11.08886 -0.88413 17.94329 56.2206 -23.03514 48.97607 -98.33362 5.02421 -3.76145 108.52972 -11.02341 -9.74047 -81.22166 -14.91532 -3.60948 -2.9296 128.58726 -1.93696 -7.1126 -119.2375 -20.2052 0.22812 1.11994
0.34841 -0.5789 0.00689 -180.81865 30.55245 -1.58106 -8.1575 2.08254 -12.2765 -44.87783 -11.56076 -0.83079 -50.49374 -28.85183 -5.08337 76.83679 90.18676 8.9674 -0.69624 14.7865 56.25132 -20.08411 48.62219 -96.72203 4.39504 -3.7814 108.23711 -10.88662 -9.01082 -81.13335 -14.95499 -3.49167 -2.86453 128.28541 0.55287 -5.22286 -118.25508 -20.20349 0.42046 1.2705
0.34828 -0.57884 0.00704 -180.73854 30.7741 -1.87144 -8.07951 2.35824 -12.22921 -44.90031 -11.47545 -0.83079 -50.0511 -28.55154 -5.6285 77.31406 89.23769 6.73246 -0.46774 11.56349 56.33378 -17.03705 48.2721 -94.9922 3.72195 -3.7804 107.91722 -10.74096 -8.21895 -81.04178 -14.9991 -3.36076 -2.79224 128.00286 3.34449 -3.17859 -117.31805 -20.28237 0.5806 1.37064
0.34811 -0.57879 0.00715 -180.7022 30.90144 -2.13707 -7.94468 2.61635 -12.08418 -44.92254 -11.29101 -0.83079 -49.46098 -28.34242 -5.94823 77.5071 88.20493 4.69573 -0.28942 8.44692 56.27399 -14.18056 47.8921 -93.43721 3.1301 -3.81647 107.6448 -10.61599 -7.54019 -80.96907 -15.03428 -3.25666 -2.73507 127.66463 5.61102 -1.36919 -116.2427 -20.36198 0.68497 1.41692
0.3478 -0.57874 0.00712 -180.80005 30.75695 -2.32008 -7.63053 2.80731 -11.66554 -44.95602 -10.82334 -0.83079 -48.51792 -28.3899 -5.61846 76.9605 86.91085 3.20919 -0.32089 5.63677 55.86816 -11.8323 47.45577 -92.43047 2.76566 -3.95785 107.51635 -10.54482 -7.18152 -80.94352 -15.0353 -3.22456 -2.7174 127.21089 6.29585 -0.31645 -114.84342 -20.27182 0.76241 1.4719
0.34745 -0.5787 0.00705 -180.94204 30.51862 -2.47642 -7.26096 2.97798 -11.14923 -44.9878 -10.25631 -0.83079 -47.43321 -28.52986 -5.06103 76.12932 85.54554 1.9394 -0.39836 2.94546 55.32216 -9.68575 46.99239 -91.61544 2.48741 -4.13684 107.43686 -10.49468 -6.94206 -80.93343 -15.02867 -3.21994 -2.7153 126.6989 6.44009 0.48893 -113.3091 -20.16379 0.79856 1.49014
0.34713 -0.57867 0.007 -181.05985 30.32948 -2.64578 -6.92735 3.15828 -10.67984 -45.01399 -9.73737 -0.83079 -46.41029 -28.62679 -4.61398 75.41777 84.25373 0.60407 -0.42561 0.21682 54.83304 -7.46905 46.54003 -90.72375 2.17811 -4.30015 107.33198 -10.4365 -6.65618 -80.90926 -15.03219 -3.20464 -2.70769 126.19673 6.84911 1.42106 -111.82803 -20.07197 0.84913 1.51944
0.34679 -0.57861 0.00694 -181.19346 30.11409 -2.81364 -6.54984 3.33967 -10.19974 -45.06631 -9.20614 -0.83079 -45.39014 -28.72666 -4.14101 74.74188 82.79345 -0.8755 -0.57172 -2.59022 54.36801 -5.15665 46.09005 -89.77591 1.83398 -4.45832 107.23691 -10.37268 -6.33472 -80.91492 -15.00893 -3.18198 -2.69377 125.76105 7.19717 2.311 -110.37465 -19.96882 0.90123 1.55148
0.34646 -0.5786 0.00688 -181.30568 29.92967 -2.97707 -6.24945 3.5127 -9.71885 -45.0644 -8.67748 -0.83079 -44.33454 -28.84347 -3.66614 73.92705 81.65723 -2.00338 -0.48388 -5.20062 53.82101 -3.09549 45.62945 -88.99527 1.58171 -4.6345 107.1362 -10.32481 -6.11671 -80.86387 -15.03788 -3.18078 -2.69629 125.17613 7.53259 3.21835 -108.83416 -19.87663 0.9463 1.57667
0.34617 -0.57872 0.00678 -181.34253 29.86489 -3.1391 -6.18269 3.66985 -9.25888 -44.90939 -8.1725 -0.83079 -43.20499 -28.97684 -3.24881 72.78662 81.5361 -2.18535 0.26961 -7.32102 53.08593 -1.65303 45.1508 -88.62827 1.57884 -4.86739 106.98504 -10.322 -6.15575 -80.63046 -15.22797 -3.23594 -2.74391 124.17351 8.01106 4.29246 -107.08583 -19.81445 0.98834 1.59834
0.34588 -0.5789 0.00667 -181.35737 29.83245 -3.29656 -6.19417 3.81844 -8.8018 -44.70066 -7.67476 -0.83079 -42.04749 -29.12545 -2.83581 71.5187 81.72802 -2.02457 1.25669 -9.24173 52.27329 -0.46188 44.66204 -88.42479 1.66254 -5.11418 106.8309 -10.33338 -6.29494 -80.34316 -15.46814 -3.31115 -2.80694 123.02687 8.48517 5.38028 -105.25615 -19.76146 1.02609 1.61631
0.34559 -0.57904 0.00656 -181.38617 29.77776 -3.45301 -6.16484 3.96918 -8.34368 -44.51901 -7.17881 -0.83079 -40.91108 -29.27232 -2.41567 70.31768 81.70588 -2.03836 2.13243 -11.23817 51.49415 0.82748 44.17532 -88.14897 1.69592 -5.3441 106.69347 -10.33417 -6.38853 -80.09475 -15.67536 -3.3746 -2.86052 121.9592 8.92855 6.42139 -103.46405 -19.70401 1.06416 1.63483
0.34532 -0.57922 0.00646 -181.40026 29.75144 -3.62149 -6.15512 4.12681 -7.88028 -44.32593 -6.65844 -0.83079 -39.73494 -29.40107 -2.00909 69.0699 81.97168 -1.96697 3.03391 -13.29655 50.71697 2.17855 43.69828 -87.87146 1.77885 -5.61989 106.49326 -10.35305 -6.48725 -79.78649 -15.92495 -3.44985 -2.9247 120.83163 9.48968 7.62352 -101.66187 -19.64762 1.10723 1.6563
0.345 -0.57934 0.00634 -181.4386 29.67527 -3.76428 -6.12466 4.26803 -7.43076 -44.14408 -6.19133 -0.83079 -38.63586 -29.56928 -1.57871 67.8916 81.72885 -1.99236 3.93107 -15.17678 49.91968 3.3426 43.19914 -87.63365 1.77774 -5.80296 106.42199 -10.33751 -6.59671 -79.58945 -16.09877 -3.50537 -2.97058 119.79634 9.81371 8.49856 -99.8665 -19.59127 1.13963 1.67148
0.34456 -0.5793 0.0062 -181.55425 29.4509 -3.83622 -6.01122 4.36861 -7.01165 -44.00499 -5.87568 -0.83079 -37.76509 -29.84807 -1.07852 66.94985 79.86835 -2.38666 4.8179 -16.64076 49.08221 4.06346 42.64132 -87.46716 1.5258 -5.72588 106.71177 -10.22235 -6.71864 -79.71645 -16.04687 -3.49727 -2.95903 119.04386 9.46682 8.45109 -98.0829 -19.53284 1.14294 1.66986
0.34407 -0.5792 0.00606 -181.69394 29.17616 -3.88276 -5.87574 4.45261 -6.60833 -43.87926 -5.61298 -0.83079 -36.97183 -30.16448 -0.55578 66.08153 77.51014 -2.88779 5.68199 -17.92729 48.22872 4.60295 42.06203 -87.33388 1.18565 -5.55472 107.13041 -10.07249 -6.84654 -79.95647 -15.91778 -3.46913 -2.92892 118.39131 8.88732 8.07785 -96.31536 -19.4743 1.13605 1.66236
0.3436 -0.57913 0.00592 -181.81908 28.92675 -3.94177 -5.7549 4.54263 -6.20285 -43.74847 -5.32215 -0.83079 -36.1383 -30.45986 -0.0467 65.17195 75.47092 -3.32961 6.5177 -19.2788 47.38546 5.2196 41.49244 -87.18319 0.88359 -5.4272 107.48694 -9.93875 -6.96559 -80.14224 -15.82692 -3.45301 -2.90938 117.6975 8.42839 7.86586 -94.55795 -19.41554 1.1345 1.65799
